#!OML:ASF H:\MichaelJackson\Top Level 1\Subject 1\Session 1\male.ASF
:FULLY-SPECIFIED
:DEGREES
870
root 1.92743 15.9744 12.875 19.3207 -11.5483 -0.0953171
lowerback 1.1816 -0.774058 3.91185
upperback -1.92926 -1.03882 -3.8843
thorax -2.80222 -0.651753 -6.20331
lowerneck -6.21594 3.09484 5.7206
upperneck -6.23104 3.87453 1.98702
head -0.828573 1.80054 -0.279085
rclavicle -3.10104e-014 -2.38542e-015
rhumerus 7.74367 -29.5544 5.90903
rradius 26.1715
rwrist -12.0999
rhand -36.4244 -50.3109
rfingers 7.12502
rthumb -9.51927 -80.0759
lclavicle -3.10104e-014 -2.38542e-015
lhumerus -55.7347 -36.7803 115.873
lradius 52.1533
lwrist 22.0282
lhand 36.5282 35.0003
lfingers 7.12502
lthumb 59.4603 49.3349
rfemur -48.8171 -7.27989 -0.650745
rtibia 56.755
rfoot -3.9724 7.96263
rtoes -29.5304
lfemur 0.0621507 13.2176 9.16453
ltibia 1.43125e-014
lfoot -18.71 -25.9092
ltoes -31.8209
871
root 1.92573 15.9777 12.8668 19.3714 -11.5139 -0.0577081
lowerback 1.22797 -0.762426 3.80357
upperback -1.9127 -1.02522 -3.90523
thorax -2.8074 -0.642593 -6.16329
lowerneck -6.26359 3.10363 5.72452
upperneck -6.1158 3.87969 2.01641
head -0.785681 1.80669 -0.268494
rclavicle -4.33351e-014 -4.77083e-015
rhumerus 7.70151 -29.4608 5.87794
rradius 26.1944
rwrist -12.045
rhand -36.4488 -50.23
rfingers 7.12502
rthumb -9.54286 -79.9939
lclavicle -4.33351e-014 -4.77083e-015
lhumerus -55.6559 -36.8715 115.879
lradius 52.1127
lwrist 21.8971
lhand 36.674 34.9719
lfingers 7.12502
lthumb 59.5856 49.18
rfemur -48.9676 -7.49814 -0.617229
rtibia 56.8061
rfoot -3.73966 8.19529
rtoes -29.4411
lfemur -0.0602587 13.2104 9.14396
ltibia -2.70347e-014
lfoot -18.6288 -26.0081
ltoes -31.8822
872
root 1.92446 15.9821 12.8582 19.409 -11.4426 -0.0496153
lowerback 1.30114 -0.758437 3.7497
upperback -1.89247 -1.01953 -3.9123
thorax -2.8259 -0.638637 -6.13937
lowerneck -6.31878 3.11166 5.71356
upperneck -6.00989 3.88354 2.01925
head -0.74424 1.81245 -0.263649
rclavicle -2.3059e-014 2.70347e-014
rhumerus 7.68086 -29.4345 5.84428
rradius 26.2018
rwrist -11.9599
rhand -36.4654 -50.176
rfingers 7.12502
rthumb -9.55883 -79.9392
lclavicle -2.3059e-014 2.70347e-014
lhumerus -55.5779 -36.9239 115.877
lradius 52.0587
lwrist 21.6246
lhand 36.8774 34.8261
lfingers 7.12502
lthumb 59.7602 48.8557
rfemur -49.0565 -7.6326 -0.610982
rtibia 56.8159
rfoot -3.53664 8.45181
rtoes -29.5597
lfemur -0.187472 13.171 9.14953
ltibia 9.54166e-015
lfoot -18.5537 -26.0583
ltoes -31.951
873
root 1.92377 15.9872 12.8494 19.435 -11.357 -0.0863102
lowerback 1.39664 -0.754665 3.75634
upperback -1.86627 -1.01148 -3.902
thorax -2.85145 -0.63459 -6.13179
lowerneck -6.36867 3.11973 5.69169
upperneck -5.92926 3.88842 1.99101
head -0.711013 1.81832 -0.266942
rclavicle 0 -2.54444e-014
rhumerus 7.68568 -29.4686 5.80629
rradius 26.1987
rwrist -11.8689
rhand -36.4757 -50.1574
rfingers 7.12502
rthumb -9.56885 -79.9201
lclavicle 0 -2.54444e-014
lhumerus -55.5026 -36.9355 115.866
lradius 52.0114
lwrist 21.2822
lhand 37.0801 34.6273
lfingers 7.12502
lthumb 59.9338 48.4769
rfemur -49.0944 -7.66201 -0.615294
rtibia 56.7861
rfoot -3.36 8.71406
rtoes -29.8457
lfemur -0.298218 13.1216 9.19382
ltibia -3.18055e-015
lfoot -18.482 -26.0556
ltoes -32.0244
874
root 1.92361 15.9928 12.8405 19.4527 -11.2808 -0.170549
lowerback 1.508 -0.744425 3.81487
upperback -1.83552 -0.992371 -3.87545
thorax -2.8805 -0.625854 -6.13721
lowerneck -6.40164 3.12784 5.66133
upperneck -5.88445 3.89562 1.93473
head -0.691083 1.82446 -0.278123
rclavicle 1.82882e-014 4.85035e-014
rhumerus 7.71782 -29.5449 5.76002
rradius 26.1892
rwrist -11.7893
rhand -36.4923 -50.1837
rfingers 7.12502
rthumb -9.58477 -79.9456
lclavicle 1.82882e-014 4.85035e-014
lhumerus -55.4366 -36.9165 115.853
lradius 51.9852
lwrist 20.9501
lhand 37.2132 34.4239
lfingers 7.12502
lthumb 60.0477 48.154
rfemur -49.101 -7.58548 -0.61525
rtibia 56.7263
rfoot -3.20608 8.95806
rtoes -30.2409
lfemur -0.376943 13.0841 9.27797
ltibia 1.43125e-014
lfoot -18.4115 -26.0068
ltoes -32.0994
875
root 1.92374 15.9984 12.8318 19.4693 -11.2366 -0.297424
lowerback 1.61993 -0.721659 3.907
upperback -1.80182 -0.954927 -3.83731
thorax -2.90474 -0.608272 -6.15056
lowerneck -6.41329 3.13655 5.62755
upperneck -5.8755 3.90623 1.86301
head -0.685302 1.83126 -0.294196
rclavicle -4.8901e-014 1.82882e-014
rhumerus 7.77097 -29.6388 5.70409
rradius 26.1767
rwrist -11.7234
rhand -36.5073 -50.2251
rfingers 7.12502
rthumb -9.59929 -79.9864
lclavicle -4.8901e-014 1.82882e-014
lhumerus -55.383 -36.8844 115.84
lradius 51.9933
lwrist 20.6963
lhand 37.2459 34.275
lfingers 7.12502
lthumb 60.0756 47.9756
rfemur -49.1031 -7.41769 -0.595868
rtibia 56.6511
rfoot -3.06824 9.15727
rtoes -30.6731
lfemur -0.415042 13.0801 9.39652
ltibia -9.54166e-015
lfoot -18.3391 -25.9269
ltoes -32.1663
876
root 1.92387 16.0034 12.8234 19.4902 -11.239 -0.453071
lowerback 1.71891 -0.682536 4.00889
upperback -1.76854 -0.895243 -3.79518
thorax -2.91907 -0.579422 -6.1665
lowerneck -6.39724 3.14347 5.59842
upperneck -5.90039 3.9172 1.78687
head -0.694222 1.83704 -0.313237
rclavicle -2.42517e-014 -3.97569e-015
rhumerus 7.83404 -29.7142 5.64042
rradius 26.1642
rwrist -11.6786
rhand -36.5179 -50.2612
rfingers 7.12502
rthumb -9.60956 -80.022
lclavicle -2.42517e-014 -3.97569e-015
lhumerus -55.3466 -36.8625 115.836
lradius 52.0359
lwrist 20.5593
lhand 37.1776 34.2
lfingers 7.12502
lthumb 60.0172 47.9622
rfemur -49.1237 -7.19278 -0.546153
rtibia 56.576
rfoot -2.94139 9.2914
rtoes -31.0775
lfemur -0.411055 13.1219 9.53665
ltibia -1.27222e-014
lfoot -18.2629 -25.834
ltoes -32.2215
877
root 1.92361 16.0077 12.8155 19.5196 -11.2865 -0.6161
lowerback 1.79231 -0.629235 4.09565
upperback -1.73857 -0.81768 -3.75772
thorax -2.91961 -0.541039 -6.17979
lowerneck -6.35935 3.14882 5.57992
upperneck -5.94317 3.92795 1.7218
head -0.712237 1.84184 -0.331211
rclavicle -1.43125e-014 1.66979e-014
rhumerus 7.89206 -29.7332 5.57234
rradius 26.1576
rwrist -11.6623
rhand -36.5295 -50.2962
rfingers 7.12502
rthumb -9.62073 -80.0565
lclavicle -1.43125e-014 1.66979e-014
lhumerus -55.3228 -36.8644 115.84
lradius 52.1007
lwrist 20.5405
lhand 37.0385 34.2007
lfingers 7.12502
lthumb 59.8982 48.0874
rfemur -49.1743 -6.95548 -0.462666
rtibia 56.5139
rfoot -2.82288 9.34556
rtoes -31.3914
lfemur -0.376723 13.2062 9.67922
ltibia 6.36111e-015
lfoot -18.1792 -25.7465
ltoes -32.2609
878
root 1.92272 16.0114 12.8084 19.5533 -11.3603 -0.761142
lowerback 1.83506 -0.569354 4.14708
upperback -1.71229 -0.733549 -3.73238
thorax -2.90523 -0.498442 -6.18613
lowerneck -6.30729 3.15004 5.57449
upperneck -5.98821 3.93422 1.68196
head -0.733646 1.84388 -0.343919
rclavicle -7.95139e-016 -1.03368e-014
rhumerus 7.93932 -29.6886 5.4969
rradius 26.1548
rwrist -11.6668
rhand -36.5335 -50.3258
rfingers 7.12502
rthumb -9.62459 -80.0859
lclavicle -7.95139e-016 -1.03368e-014
lhumerus -55.3027 -36.9013 115.849
lradius 52.1685
lwrist 20.6137
lhand 36.8728 34.2497
lfingers 7.12502
lthumb 59.7562 48.2834
rfemur -49.2482 -6.75519 -0.350665
rtibia 56.4718
rfoot -2.70898 9.31481
rtoes -31.5658
lfemur -0.328921 13.311 9.8036
ltibia -5.725e-014
lfoot -18.0824 -25.6788
ltoes -32.2822
879
root 1.92106 16.0147 12.802 19.584 -11.4364 -0.86555
lowerback 1.84932 -0.51163 4.15113
upperback -1.69046 -0.655191 -3.72608
thorax -2.87966 -0.457794 -6.18525
lowerneck -6.24754 3.14541 5.58312
upperneck -6.01957 3.9331 1.67769
head -0.752738 1.84207 -0.34809
rclavicle -2.22639e-014 0
rhumerus 7.96986 -29.5796 5.41044
rradius 26.1556
rwrist -11.6872
rhand -36.5228 -50.3094
rfingers 7.12502
rthumb -9.6142 -80.07
lclavicle -2.22639e-014 0
lhumerus -55.2807 -36.9814 115.863
lradius 52.2175
lwrist 20.7423
lhand 36.7322 34.3352
lfingers 7.12502
lthumb 59.6356 48.4925
rfemur -49.3287 -6.63219 -0.221491
rtibia 56.4511
rfoot -2.60518 9.20618
rtoes -31.5943
lfemur -0.285713 13.4085 9.89142
ltibia 2.70347e-014
lfoot -17.9695 -25.6365
ltoes -32.2884
880
root 1.91858 16.0177 12.7963 19.6077 -11.4945 -0.921085
lowerback 1.838 -0.462846 4.10626
upperback -1.67352 -0.591647 -3.73788
thorax -2.84634 -0.423715 -6.17476
lowerneck -6.19069 3.13601 5.60135
upperneck -6.0206 3.92515 1.71281
head -0.762793 1.83727 -0.341416
rclavicle -1.03368e-014 -3.97569e-014
rhumerus 7.98581 -29.414 5.31245
rradius 26.1618
rwrist -11.7359
rhand -36.5056 -50.2799
rfingers 7.12502
rthumb -9.59769 -80.0413
lclavicle -1.03368e-014 -3.97569e-014
lhumerus -55.2498 -37.0931 115.877
lradius 52.2358
lwrist 20.8768
lhand 36.6628 34.428
lfingers 7.12502
lthumb 59.576 48.6458
rfemur -49.4014 -6.60347 -0.0848
rtibia 56.4465
rfoot -2.51286 9.03747
rtoes -31.4835
lfemur -0.260859 13.4789 9.93672
ltibia 1.27222e-014
lfoot -17.8408 -25.6164
ltoes -32.2869
